# 3ds Max Wavefront OBJ Exporter v0.97b - (c)2007 guruware
# File Created: 27.01.2018 14:57:27

mtllib lavabo.mtl

#
# object Lavabo_uff
#

v  163.7598 0.0000 -433.9031
v  163.7603 0.0000 -432.3723
v  163.9348 0.0000 -432.3001
v  163.9342 0.0000 -433.9754
v  162.6783 0.0000 -431.2896
v  162.7506 0.0000 -431.1151
v  161.1476 0.0000 -431.2890
v  161.0754 0.0000 -431.1145
v  160.0648 0.0000 -432.3710
v  159.8904 0.0000 -432.2987
v  160.0643 0.0000 -433.9018
v  159.8898 0.0000 -433.9740
v  161.1463 0.0000 -434.9846
v  161.0739 0.0000 -435.1590
v  162.6770 0.0000 -434.9851
v  162.7492 0.0000 -435.1596
v  164.0849 0.0000 -432.2380
v  164.0843 0.0000 -434.0376
v  162.8129 0.0000 -430.9651
v  161.0132 0.0000 -430.9644
v  159.7403 0.0000 -432.2365
v  159.7397 0.0000 -434.0361
v  161.0117 0.0000 -435.3091
v  162.8113 0.0000 -435.3097
v  161.0117 0.0000 -439.8871
v  159.7397 0.0000 -439.8813
v  162.8113 0.0000 -439.8871
v  164.0843 0.0000 -439.8813
v  162.8129 0.0000 -414.3874
v  164.0849 0.0000 -414.3929
v  161.0132 0.0000 -414.3874
v  159.7403 0.0000 -414.3929
v  190.0844 0.0000 -432.2380
v  190.0838 -0.0000 -434.0376
v  190.0838 0.0000 -439.8813
v  190.0844 -0.0000 -414.3929
v  133.7402 -0.0000 -434.0361
v  133.7408 0.0000 -432.2365
v  133.7402 -0.0000 -439.8813
v  133.7408 0.0000 -414.3929
v  161.9081 8.9076 -442.8813
v  162.4310 7.6465 -442.8813
v  163.1646 8.3806 -442.8813
v  163.1642 9.4184 -442.8813
v  163.7592 9.6651 -439.8813
v  163.7597 8.1343 -439.8813
v  163.9342 8.0621 -439.8813
v  163.9336 9.7374 -439.8813
v  162.6777 7.0515 -439.8813
v  162.7500 6.8771 -439.8813
v  161.1470 7.0510 -439.8813
v  161.0748 6.8765 -439.8813
v  160.0642 8.1330 -439.8813
v  159.8898 8.0607 -439.8813
v  160.0637 9.6638 -439.8813
v  159.8892 9.7360 -439.8813
v  161.1457 10.7465 -439.8813
v  161.0733 10.9210 -439.8813
v  162.6764 10.7471 -439.8813
v  162.7486 10.9216 -439.8813
v  164.0843 8.0000 -439.8813
v  164.0837 9.7996 -439.8813
v  162.8123 6.7270 -439.8813
v  161.0126 6.7264 -439.8813
v  159.7397 7.9985 -439.8813
v  159.7391 9.7981 -439.8813
v  161.0111 11.0710 -439.8813
v  162.8107 11.0717 -439.8813
v  163.5986 9.5985 -439.8813
v  163.5991 8.2008 -439.8813
v  162.6100 10.5865 -439.8813
v  161.2122 10.5860 -439.8813
v  160.2243 9.5973 -439.8813
v  160.2248 8.1996 -439.8813
v  161.2134 7.2116 -439.8813
v  162.6111 7.2121 -439.8813
v  163.4403 9.5328 -439.8813
v  163.4407 8.2663 -439.8813
v  162.5444 10.4281 -439.8813
v  161.2779 10.4276 -439.8813
v  160.3827 9.5318 -439.8813
v  160.3831 8.2653 -439.8813
v  161.2790 7.3700 -439.8813
v  162.5455 7.3705 -439.8813
v  161.0111 13.1492 -439.8813
v  159.7391 13.1431 -439.8813
v  162.8107 13.1492 -439.8813
v  164.0837 13.1432 -439.8813
v  161.3351 10.2896 -439.8813
v  162.4873 10.2900 -439.8813
v  160.5208 9.4746 -439.8813
v  160.5211 8.3225 -439.8813
v  161.3361 7.5081 -439.8813
v  162.4883 7.5085 -439.8813
v  163.3026 8.3235 -439.8813
v  163.3022 9.4756 -439.8813
v  162.4873 10.2900 -442.8813
v  161.3351 10.2896 -442.8813
v  161.3924 10.1516 -442.8813
v  162.4301 10.1519 -442.8813
v  160.5208 9.4746 -442.8813
v  160.6588 9.4175 -442.8813
v  160.5211 8.3225 -442.8813
v  160.6592 8.3797 -442.8813
v  161.3361 7.5081 -442.8813
v  161.3932 7.6462 -442.8813
v  162.4883 7.5085 -442.8813
v  163.3026 8.3235 -442.8813
v  163.3022 9.4756 -442.8813
v  190.0838 8.0000 -439.8813
v  190.0832 9.7996 -439.8813
v  190.0832 13.1432 -439.8813
v  133.7396 9.7981 -439.8813
v  133.7402 7.9985 -439.8813
v  133.7396 13.1431 -439.8813
v  163.7577 13.1492 -447.3193
v  163.7582 13.1492 -445.7886
v  163.9327 13.1492 -445.7164
v  163.9321 13.1492 -447.3917
v  162.6762 13.1492 -444.7058
v  162.7485 13.1492 -444.5314
v  161.1455 13.1492 -444.7053
v  161.0732 13.1492 -444.5308
v  160.0627 13.1492 -445.7873
v  159.8882 13.1492 -445.7150
v  160.0621 13.1492 -447.3180
v  159.8876 13.1492 -447.3903
v  161.1442 13.1492 -448.4008
v  161.0718 13.1492 -448.5753
v  162.6749 13.1492 -448.4013
v  162.7471 13.1492 -448.5758
v  164.0828 13.1492 -445.6543
v  164.0822 13.1492 -447.4539
v  162.8107 13.1492 -444.3813
v  161.0111 13.1492 -444.3807
v  159.7382 13.1492 -445.6528
v  159.7375 13.1492 -447.4524
v  161.0096 13.1492 -448.7253
v  162.8092 13.1492 -448.7260
v  161.0096 13.1492 -452.8037
v  159.7375 13.1492 -452.7983
v  162.8092 13.1492 -452.8037
v  164.0822 13.1492 -452.7983
v  160.7293 8.4283 -442.8813
v  190.0823 13.1492 -445.6542
v  190.0817 13.1492 -447.4539
v  190.0817 13.1492 -452.7983
v  133.7380 13.1492 -447.4524
v  133.7387 13.1492 -445.6528
v  133.7380 13.1492 -452.7983
v  190.0839 8.0000 -434.0376
v  190.0832 9.7996 -434.0376
v  190.0845 8.0000 -432.2380
v  190.0839 9.7996 -432.2380
v  190.0845 8.0000 -414.3929
v  190.0839 9.7996 -414.3929
v  164.0850 8.0000 -414.3929
v  164.0843 9.7996 -414.3929
v  190.0838 13.1432 -414.3929
v  164.0843 13.1432 -414.3929
v  162.8129 8.0000 -414.3874
v  161.0133 8.0000 -414.3874
v  159.7403 8.0000 -414.3929
v  162.8122 9.7996 -414.3873
v  161.0127 9.7996 -414.3874
v  159.7397 9.7996 -414.3929
v  162.8122 13.1432 -414.3874
v  161.0127 13.1432 -414.3875
v  159.7397 13.1432 -414.3930
v  133.7408 7.9990 -414.3929
v  133.7402 9.7986 -414.3929
v  133.7402 13.1431 -414.3929
v  133.7396 9.7981 -434.0361
v  133.7402 7.9985 -434.0361
v  133.7396 13.1431 -434.0361
v  133.7408 7.9985 -432.2365
v  133.7402 9.7981 -432.2365
v  133.7402 13.1431 -432.2365
v  191.5819 13.1492 -445.6542
v  191.5812 13.1492 -447.4539
v  191.5828 13.1432 -439.8813
v  191.5812 13.1492 -452.7983
v  190.0832 13.1432 -434.0376
v  191.5828 13.1432 -434.0376
v  190.0838 13.1432 -432.2380
v  191.5834 13.1432 -432.2380
v  191.5834 13.1432 -414.3929
v  132.2378 13.1492 -447.4524
v  132.2384 13.1492 -445.6528
v  132.2393 13.1431 -439.8813
v  132.2378 13.1492 -452.7983
v  132.2393 13.1431 -434.0361
v  132.2399 13.1431 -432.2365
v  132.2399 13.1431 -414.3929
v  164.0843 13.1432 -412.8931
v  190.0838 13.1432 -412.8931
v  162.8122 13.1432 -412.8876
v  161.0127 13.1432 -412.8876
v  159.7397 13.1432 -412.8932
v  133.7402 13.1431 -412.8931
v  191.5834 13.1432 -412.8931
v  132.2399 13.1431 -412.8931
v  163.7618 -2.8513 -447.3193
v  163.9363 -2.8513 -447.3917
v  163.9369 -2.8513 -445.7164
v  163.7624 -2.8513 -445.7886
v  162.7527 -2.8513 -444.5314
v  162.6804 -2.8513 -444.7058
v  161.0774 -2.8513 -444.5308
v  161.1496 -2.8513 -444.7053
v  159.8924 -2.8513 -445.7150
v  160.0668 -2.8513 -445.7873
v  159.8918 -2.8513 -447.3903
v  160.0663 -2.8513 -447.3180
v  161.0760 -2.8513 -448.5753
v  161.1483 -2.8513 -448.4008
v  162.7513 -2.8513 -448.5758
v  162.6791 -2.8513 -448.4013
v  164.0863 -2.8513 -447.4539
v  164.0870 -2.8513 -445.6543
v  162.8149 -2.8513 -444.3813
v  161.0153 -2.8513 -444.3807
v  159.7424 -2.8513 -445.6527
v  159.7417 -2.8513 -447.4524
v  161.0138 -2.8513 -448.7253
v  162.8134 -2.8513 -448.7259
v  161.0153 -2.8468 -439.8857
v  159.7432 -2.8453 -439.8813
v  162.8149 -2.8468 -439.8857
v  164.0879 -2.8453 -439.8813
v  190.0859 -2.8513 -447.4538
v  190.0865 -2.8513 -445.6542
v  190.0874 -2.8453 -439.8813
v  164.0863 -2.8513 -452.7983
v  190.0859 -2.8513 -452.7983
v  133.7428 -2.8513 -445.6528
v  133.7422 -2.8513 -447.4524
v  133.7437 -2.8453 -439.8813
v  133.7422 -2.8513 -452.7983
v  159.7417 -2.8513 -452.7983
v  191.5854 -2.8513 -447.4538
v  191.5860 -2.8513 -445.6542
v  191.5869 -2.8453 -439.8813
v  191.5854 -2.8513 -452.7983
v  132.2426 -2.8513 -445.6527
v  132.2420 -2.8513 -447.4524
v  132.2435 -2.8453 -439.8813
v  132.2419 -2.8513 -452.7983
v  163.7634 -2.8453 -433.9031
v  163.9378 -2.8453 -433.9754
v  163.9384 -2.8453 -432.3001
v  163.7639 -2.8453 -432.3723
v  162.7542 -2.8453 -431.1151
v  162.6819 -2.8453 -431.2896
v  161.0789 -2.8453 -431.1145
v  161.1511 -2.8453 -431.2890
v  159.8939 -2.8453 -432.2987
v  160.0684 -2.8453 -432.3710
v  159.8933 -2.8453 -433.9740
v  160.0678 -2.8453 -433.9018
v  161.0775 -2.8453 -435.1590
v  161.1499 -2.8453 -434.9846
v  162.7528 -2.8453 -435.1596
v  162.6806 -2.8453 -434.9851
v  164.0879 -2.8453 -434.0376
v  164.0885 -2.8453 -432.2380
v  162.8164 -2.8453 -430.9651
v  161.0168 -2.8453 -430.9644
v  159.7439 -2.8453 -432.2365
v  159.7432 -2.8453 -434.0361
v  161.0153 -2.8453 -435.3091
v  162.8149 -2.8453 -435.3097
v  164.0885 -2.8453 -414.3929
v  162.8164 -2.8453 -414.3874
v  161.0168 -2.8453 -414.3874
v  159.7439 -2.8453 -414.3929
v  190.0874 -2.8453 -434.0376
v  190.0880 -2.8453 -432.2380
v  190.0880 -2.8453 -414.3929
v  133.7444 -2.8453 -432.2365
v  133.7437 -2.8453 -434.0361
v  133.7444 -2.8453 -414.3929
v  191.5869 -2.8453 -434.0376
v  191.5875 -2.8453 -432.2380
v  191.5876 -2.8453 -414.3930
v  132.2435 -2.8453 -434.0361
v  132.2441 -2.8453 -432.2365
v  132.2441 -2.8453 -414.3929
v  164.0885 -2.8453 -412.8932
v  162.8164 -2.8453 -412.8876
v  161.0168 -2.8453 -412.8876
v  159.7439 -2.8453 -412.8932
v  190.0880 -2.8453 -412.8932
v  133.7444 -2.8453 -412.8932
v  191.5876 -2.8453 -412.8932
v  132.2441 -2.8453 -412.8932
v  161.0138 -2.8513 -452.8033
v  162.8134 -2.8513 -452.8033
# 298 vertices

vn -0.5494 0.8039 0.2279
vn -0.5496 0.8039 -0.2275
vn 0.0000 1.0000 -0.0000
vn -0.2276 0.8041 -0.5493
vn 0.2274 0.8043 -0.5490
vn 0.5487 0.8045 -0.2274
vn 0.5488 0.8045 0.2270
vn 0.2277 0.8043 0.5488
vn -0.2272 0.8041 0.5494
vn -0.0000 1.0000 -0.0000
vn -0.0000 1.0000 0.0000
vn 0.0016 0.7063 0.7080
vn 0.0016 0.7077 0.7066
vn -0.0016 0.7063 0.7079
vn -0.0016 0.7076 0.7066
vn -0.0016 0.7066 -0.7076
vn -0.0015 0.7076 -0.7066
vn 0.0015 0.7066 -0.7076
vn 0.0015 0.7076 -0.7066
vn -0.7071 0.7071 0.0001
vn -0.5772 0.5775 0.5774
vn -0.5773 0.5773 -0.5774
vn 0.7071 0.7071 -0.0001
vn 0.5774 0.5773 0.5774
vn 0.5773 0.5774 -0.5774
vn -0.0000 0.0000 1.0000
vn 0.0000 -0.0000 1.0000
vn 0.0000 0.0000 1.0000
vn -0.0000 -0.0000 1.0000
vn 0.0003 -0.0005 1.0000
vn -0.0003 -0.0005 1.0000
vn -0.0017 0.7076 0.7066
vn -0.0017 0.7062 0.7080
vn 0.0017 0.7076 0.7066
vn 0.0017 0.7062 0.7080
vn 0.2276 -0.5491 0.8042
vn -0.2273 -0.5492 0.8042
vn 0.5492 -0.2273 0.8042
vn 0.5491 0.2277 0.8042
vn 0.2273 0.5492 0.8042
vn -0.2277 0.5491 0.8042
vn -0.5492 0.2273 0.8042
vn -0.5491 -0.2276 0.8042
vn -0.2969 -0.7174 0.6303
vn 0.2974 -0.7172 0.6303
vn 0.7174 -0.2969 0.6303
vn 0.7172 0.2974 0.6303
vn 0.2969 0.7174 0.6303
vn -0.2973 0.7172 0.6302
vn -0.7174 0.2969 0.6303
vn -0.7172 -0.2974 0.6303
vn -0.7071 -0.0001 0.7071
vn -0.7071 -0.0001 0.7072
vn -0.3014 0.9044 0.3021
vn 0.7071 0.0001 0.7071
vn 0.3014 0.9044 0.3020
vn -0.5491 0.8041 0.2277
vn -0.5494 0.8041 -0.2273
vn -0.2276 0.8042 -0.5491
vn 0.2273 0.8042 -0.5492
vn 0.5490 0.8042 -0.2276
vn 0.5491 0.8043 0.2272
vn 0.2277 0.8043 0.5490
vn -0.2272 0.8042 0.5493
vn 0.0001 1.0000 0.0004
vn -0.0001 1.0000 0.0004
vn -0.0015 0.7066 -0.7076
vn 0.9237 0.0000 -0.3830
vn -0.0000 1.0000 0.0005
vn 0.0000 0.7071 -0.7071
vn -0.0000 0.7071 -0.7071
vn -1.0000 -0.0002 0.0002
vn -0.7071 -0.0001 -0.7071
vn -0.0022 0.0000 -1.0000
vn -0.3015 0.9045 -0.3015
vn 0.0022 0.0000 -1.0000
vn -0.0022 -0.0000 -1.0000
vn 0.0022 -0.0000 -1.0000
vn 0.0015 0.7075 -0.7067
vn 0.7070 0.0001 -0.7072
vn 0.7071 0.0001 -0.7071
vn 0.3015 0.9045 -0.3015
vn 1.0000 0.0002 -0.0002
vn 0.7072 0.7071 -0.0001
vn 0.7070 0.7072 0.0002
vn 0.7069 0.7073 -0.0001
vn 0.7071 0.7071 0.0003
vn 0.7071 0.7072 -0.0001
vn 0.7070 0.7072 0.0000
vn -0.7072 0.7070 0.0001
vn -0.7071 0.7071 0.0005
vn -0.7073 0.7069 0.0004
vn -0.5774 0.5773 -0.5774
vn -0.7072 0.7071 0.0001
vn -0.7072 0.7071 0.0000
vn 0.0015 0.7076 0.7066
vn -0.0000 0.7071 0.7071
vn 0.0015 0.7066 0.7076
vn -0.0015 0.7066 0.7076
vn -0.0015 0.7076 0.7066
vn 0.5771 0.5775 0.5774
vn -0.5774 0.5773 0.5774
vn -0.5490 -0.8042 0.2276
vn 0.0000 -1.0000 -0.0000
vn -0.5491 -0.8043 -0.2272
vn 0.0000 -1.0000 0.0000
vn -0.2277 -0.8042 -0.5490
vn 0.2272 -0.8042 -0.5493
vn 0.5491 -0.8041 -0.2277
vn 0.5494 -0.8041 0.2273
vn 0.2276 -0.8042 0.5491
vn -0.2273 -0.8042 0.5492
vn 0.0001 -1.0000 0.0004
vn 0.0004 -1.0000 0.0006
vn -0.0004 -1.0000 0.0006
vn -0.0001 -1.0000 0.0004
vn -0.0000 -1.0000 -0.0000
vn -0.0006 -1.0000 0.0007
vn -0.0006 -1.0000 0.0005
vn 0.0006 -1.0000 0.0007
vn 0.0006 -1.0000 0.0005
vn 0.0000 -1.0000 0.0005
vn -0.0000 -1.0000 0.0005
vn 0.0014 -0.7076 -0.7067
vn 0.0000 -0.7071 -0.7071
vn -0.0014 -0.7076 -0.7067
vn 0.7072 -0.7070 -0.0001
vn 0.7071 -0.7071 0.0002
vn 0.7073 -0.7069 0.0003
vn 0.5775 -0.5773 -0.5773
vn -0.7069 -0.7074 0.0005
vn -0.7070 -0.7072 0.0001
vn -0.7072 -0.7070 0.0004
vn -0.5774 -0.5773 -0.5774
vn -0.5487 -0.8045 0.2274
vn -0.5488 -0.8045 -0.2270
vn -0.2277 -0.8043 -0.5488
vn 0.2272 -0.8041 -0.5494
vn 0.5494 -0.8039 -0.2279
vn 0.5496 -0.8038 0.2275
vn 0.2276 -0.8041 0.5493
vn -0.2274 -0.8043 0.5490
vn 0.0001 -1.0000 0.0002
vn -0.0001 -1.0000 0.0002
vn -0.0000 -1.0000 0.0000
vn 0.7071 -0.7071 -0.0001
vn 0.7072 -0.7070 -0.0000
vn -0.7071 -0.7071 0.0001
vn -0.7070 -0.7072 0.0000
vn 0.0015 -0.7076 0.7066
vn 0.0016 -0.7067 0.7076
vn -0.0015 -0.7066 0.7076
vn -0.0015 -0.7076 0.7066
vn 0.0000 -0.7071 0.7071
vn -0.0000 -0.7071 0.7071
vn 0.5775 -0.5773 0.5772
vn -0.5773 -0.5774 0.5773
vn -0.0014 -0.7067 -0.7075
vn 0.0014 -0.7067 -0.7075
# 159 vertex normals

vt 0.7500 0.0000 1.0000
vt 0.6250 0.0000 1.0000
vt 0.5000 0.0000 1.0000
vt 0.3750 0.0000 1.0000
vt 0.2500 0.0000 1.0000
vt 0.1250 0.0000 1.0000
vt 0.0000 0.0000 1.0000
vt -0.1250 0.0000 1.0000
vt 0.2483 0.0000 1.0000
vt 0.2506 0.0000 1.0000
# 10 texture coords

o Lavabo_uff
g Lavabo_uff
usemtl wire_141007058
s off
f 1/1/1 2/2/2 3/2/3 4/1/3 
f 2/2/2 5/3/4 6/3/3 3/2/3 
f 5/3/4 7/4/5 8/4/3 6/3/3 
f 7/4/5 9/5/6 10/5/3 8/4/3 
f 9/5/6 11/6/7 12/6/3 10/5/3 
f 11/6/7 13/7/8 14/7/3 12/6/3 
f 13/7/8 15/8/9 16/8/3 14/7/3 
f 15/8/9 1/1/1 4/1/3 16/8/3 
f 4/1/3 3/2/3 17/2/10 18/1/3 
f 3/2/3 6/3/3 19/3/3 17/2/10 
f 6/3/3 8/4/3 20/4/3 19/3/3 
f 8/4/3 10/5/3 21/5/3 20/4/3 
f 10/5/3 12/6/3 22/6/11 21/5/3 
f 12/6/3 14/7/3 23/7/3 22/6/11 
f 14/7/3 16/8/3 24/8/3 23/7/3 
f 16/8/3 4/1/3 18/1/3 24/8/3 
f 22/6/11 23/7/3 25/7/12 26/6/13 
f 23/7/3 24/8/3 27/8/14 25/7/12 
f 24/8/3 18/1/3 28/1/15 27/8/14 
f 17/2/10 19/3/3 29/3/16 30/2/17 
f 19/3/3 20/4/3 31/4/18 29/3/16 
f 20/4/3 21/5/3 32/5/19 31/4/18 
f 18/1/3 17/2/10 33/2/20 34/1/20 
f 28/1/15 18/1/3 34/1/20 35/1/21 
f 17/2/10 30/2/17 36/2/22 33/2/20 
f 21/5/3 22/6/11 37/6/23 38/5/23 
f 22/6/11 26/6/13 39/6/24 37/6/23 
f 32/5/19 21/5/3 38/5/23 40/5/25 
s 1
f 41/9/26 42/3/26 43/2/27 44/1/28 
s off
f 45/1/28 46/2/27 47/2/26 48/1/27 
f 46/2/27 49/3/29 50/3/26 47/2/26 
f 49/3/29 51/4/27 52/4/28 50/3/26 
f 51/4/27 53/5/29 54/5/28 52/4/28 
f 53/5/29 55/6/26 56/6/29 54/5/28 
f 55/6/26 57/7/27 58/7/26 56/6/29 
f 57/7/27 59/8/29 60/8/27 58/7/26 
f 59/8/29 45/1/28 48/1/27 60/8/27 
f 48/1/27 47/2/26 61/2/26 62/1/28 
f 47/2/26 50/3/26 63/3/30 61/2/26 
f 50/3/26 52/4/28 64/4/31 63/3/30 
f 52/4/28 54/5/28 65/5/28 64/4/31 
f 54/5/28 56/6/29 66/6/28 65/5/28 
f 56/6/29 58/7/26 67/7/26 66/6/28 
f 58/7/26 60/8/27 68/8/28 67/7/26 
f 60/8/27 48/1/27 62/1/28 68/8/28 
f 46/2/27 45/1/28 69/1/28 70/2/26 
f 45/1/28 59/8/29 71/8/26 69/1/28 
f 59/8/29 57/7/27 72/7/26 71/8/26 
f 57/7/27 55/6/26 73/6/27 72/7/26 
f 55/6/26 53/5/29 74/5/28 73/6/27 
f 53/5/29 51/4/27 75/4/26 74/5/28 
f 51/4/27 49/3/29 76/3/27 75/4/26 
f 49/3/29 46/2/27 70/2/26 76/3/27 
f 70/2/26 69/1/28 77/1/28 78/2/26 
f 69/1/28 71/8/26 79/8/28 77/1/28 
f 71/8/26 72/7/26 80/7/27 79/8/28 
f 72/7/26 73/6/27 81/6/26 80/7/27 
f 73/6/27 74/5/28 82/5/29 81/6/26 
f 74/5/28 75/4/26 83/4/27 82/5/29 
f 75/4/26 76/3/27 84/3/27 83/4/27 
f 76/3/27 70/2/26 78/2/26 84/3/27 
f 26/6/13 25/7/12 64/4/31 65/5/28 
f 25/7/12 27/8/14 63/3/30 64/4/31 
f 27/8/14 28/1/15 61/2/26 63/3/30 
f 66/6/28 67/7/26 85/7/32 86/6/33 
f 67/7/26 68/8/28 87/8/34 85/7/32 
f 68/8/28 62/1/28 88/1/35 87/8/34 
f 79/8/28 80/7/27 89/7/36 90/8/37 
f 80/7/27 81/6/26 91/6/38 89/7/36 
f 81/6/26 82/5/29 92/5/39 91/6/38 
f 82/5/29 83/4/27 93/4/40 92/5/39 
f 83/4/27 84/3/27 94/3/41 93/4/40 
f 84/3/27 78/2/26 95/2/42 94/3/41 
f 78/2/26 77/1/28 96/1/43 95/2/42 
f 77/1/28 79/8/28 90/8/37 96/1/43 
f 97/8/44 98/7/45 99/7/26 100/8/29 
f 98/7/45 101/6/46 102/6/26 99/7/26 
f 101/6/46 103/5/47 104/5/29 102/6/26 
f 103/5/47 105/4/48 106/4/27 104/5/29 
f 105/4/48 107/3/49 42/3/26 106/4/27 
f 107/3/49 108/2/50 43/2/27 42/3/26 
f 108/2/50 109/1/51 44/1/28 43/2/27 
f 109/1/51 97/8/44 100/8/29 44/1/28 
f 62/1/28 61/2/26 110/2/52 111/1/53 
f 61/2/26 28/1/15 35/1/21 110/2/52 
f 88/1/35 62/1/28 111/1/53 112/1/54 
f 65/5/28 66/6/28 113/6/55 114/5/55 
f 26/6/13 65/5/28 114/5/55 39/6/24 
f 66/6/28 86/6/33 115/6/56 113/6/55 
f 116/1/57 117/2/58 118/2/3 119/1/3 
f 117/2/58 120/3/59 121/3/3 118/2/3 
f 120/3/59 122/4/60 123/4/3 121/3/3 
f 122/4/60 124/5/61 125/5/3 123/4/3 
f 124/5/61 126/6/62 127/6/3 125/5/3 
f 126/6/62 128/7/63 129/7/3 127/6/3 
f 128/7/63 130/8/64 131/8/3 129/7/3 
f 130/8/64 116/1/57 119/1/3 131/8/3 
f 119/1/3 118/2/3 132/2/65 133/1/11 
f 118/2/3 121/3/3 134/3/10 132/2/65 
f 121/3/3 123/4/3 135/4/3 134/3/10 
f 123/4/3 125/5/3 136/5/66 135/4/3 
f 125/5/3 127/6/3 137/6/11 136/5/66 
f 127/6/3 129/7/3 138/7/3 137/6/11 
f 129/7/3 131/8/3 139/8/3 138/7/3 
f 131/8/3 119/1/3 133/1/11 139/8/3 
s 1
f 135/1/3 136/3/66 86/3/33 85/7/32 
f 134/2/10 135/1/3 85/7/32 87/6/34 
s 2
f 132/8/65 134/2/10 87/6/34 88/4/35 
s off
f 137/6/11 138/7/3 140/7/67 141/6/17 
f 138/7/3 139/8/3 142/8/18 140/7/67 
f 139/8/3 133/1/11 143/1/19 142/8/18 
s 1
f 144/10/68 104/5/29 106/4/27 42/3/26 41/9/26 
f 44/1/28 100/8/29 99/7/26 41/9/26 
f 41/9/26 99/7/26 102/6/26 104/5/29 144/10/68 
s off
f 133/1/11 132/2/65 145/2/69 146/1/11 
f 132/8/65 88/4/35 112/4/54 145/8/69 
f 143/1/19 133/1/11 146/1/11 147/1/70 
f 136/5/66 137/6/11 148/6/11 149/5/69 
f 86/3/33 136/3/66 149/3/69 115/3/56 
f 137/6/11 141/6/17 150/6/71 148/6/11 
f 111/1/53 110/2/52 151/2/72 152/1/72 
f 110/2/52 35/1/21 34/1/20 151/2/72 
f 34/1/20 33/2/20 153/2/72 151/1/72 
f 152/1/72 151/2/72 153/2/72 154/1/72 
f 153/2/72 33/2/20 36/2/22 155/2/73 
f 154/1/72 153/2/72 155/2/73 156/1/73 
f 155/2/73 36/2/22 30/2/17 157/2/74 
f 156/1/73 155/2/73 157/2/74 158/1/74 
f 159/1/75 156/1/73 158/1/74 160/1/67 
f 30/2/17 29/3/16 161/3/74 157/2/74 
f 29/3/16 31/4/18 162/4/76 161/3/74 
f 31/4/18 32/5/19 163/5/76 162/4/76 
f 158/1/74 157/2/74 161/2/74 164/1/77 
f 164/1/77 161/2/74 162/2/76 165/1/78 
f 165/1/78 162/2/76 163/2/76 166/1/78 
f 158/1/74 164/1/77 167/1/17 160/1/67 
f 164/1/77 165/1/78 168/1/79 167/1/17 
f 165/1/78 166/1/78 169/1/18 168/1/79 
f 163/5/76 32/5/19 40/5/25 170/5/80 
f 166/1/78 163/2/76 170/2/80 171/1/81 
f 169/1/18 166/1/78 171/1/81 172/1/82 
f 114/5/55 113/6/55 173/6/83 174/5/83 
f 39/6/24 114/5/55 174/5/83 37/6/23 
f 113/6/55 115/6/56 175/6/23 173/6/83 
f 38/5/23 37/6/23 174/6/83 176/5/83 
f 174/5/83 173/6/83 177/6/83 176/5/83 
f 173/6/83 175/6/23 178/6/84 177/6/83 
f 38/5/23 176/5/83 170/5/80 40/5/25 
f 176/5/83 177/6/83 171/6/81 170/5/80 
f 177/6/83 178/6/84 172/6/82 171/6/81 
f 146/1/11 145/2/69 179/2/85 180/1/86 
f 145/8/69 112/4/54 181/4/87 179/8/85 
f 147/1/70 146/1/11 180/1/86 182/1/25 
f 112/1/54 183/1/20 184/1/88 181/1/87 
f 183/1/20 185/1/20 186/1/88 184/1/88 
f 185/1/20 159/1/75 187/1/89 186/1/88 
f 149/5/69 148/6/11 188/6/90 189/5/91 
f 115/3/56 149/3/69 189/3/91 190/3/92 
f 148/6/11 150/6/71 191/6/93 188/6/90 
f 175/6/23 115/6/56 190/6/92 192/6/90 
f 178/6/84 175/6/23 192/6/90 193/6/94 
f 172/6/82 178/6/84 193/6/94 194/6/95 
f 159/1/75 160/1/67 195/1/96 196/1/97 
f 160/1/67 167/1/17 197/1/98 195/1/96 
f 167/1/17 168/1/79 198/1/99 197/1/98 
f 168/1/79 169/1/18 199/1/100 198/1/99 
f 169/1/18 172/1/82 200/1/97 199/1/100 
f 187/1/89 159/1/75 196/1/97 201/1/101 
f 172/6/82 194/6/95 202/6/102 200/6/97 
f 203/1/103 204/1/104 205/2/104 206/2/105 
f 206/2/105 205/2/104 207/3/106 208/3/107 
f 208/3/107 207/3/106 209/4/104 210/4/108 
f 210/4/108 209/4/104 211/5/104 212/5/109 
f 212/5/109 211/5/104 213/6/104 214/6/110 
f 214/6/110 213/6/104 215/7/106 216/7/111 
f 216/7/111 215/7/106 217/8/104 218/8/112 
f 218/8/112 217/8/104 204/1/104 203/1/103 
f 204/1/104 219/1/104 220/2/113 205/2/104 
f 205/2/104 220/2/113 221/3/114 207/3/106 
f 207/3/106 221/3/114 222/4/115 209/4/104 
f 209/4/104 222/4/115 223/5/116 211/5/104 
f 211/5/104 223/5/116 224/6/117 213/6/104 
f 213/6/104 224/6/117 225/7/117 215/7/106 
f 217/8/104 226/8/104 219/1/104 204/1/104 
s 1
f 222/1/115 227/7/118 228/3/119 223/3/116 
f 221/2/114 229/6/120 227/7/118 222/1/115 
s 2
f 220/8/113 230/4/121 229/6/120 221/2/114 
s off
f 219/1/104 231/1/104 232/2/122 220/2/113 
f 220/8/113 232/8/122 233/4/123 230/4/121 
f 234/1/124 235/1/125 231/1/104 219/1/104 
f 223/5/116 236/5/122 237/6/104 224/6/117 
f 228/3/119 238/3/123 236/3/122 223/3/116 
f 224/6/117 237/6/104 239/6/125 240/6/126 
f 231/1/104 241/1/127 242/2/128 232/2/122 
f 232/8/122 242/8/128 243/4/129 233/4/123 
f 235/1/125 244/1/130 241/1/127 231/1/104 
f 236/5/122 245/5/131 246/6/132 237/6/104 
f 238/3/123 247/3/133 245/3/131 236/3/122 
f 237/6/104 246/6/132 248/6/134 239/6/125 
f 249/1/135 250/1/106 251/2/104 252/2/136 
f 252/2/136 251/2/104 253/3/104 254/3/137 
f 254/3/137 253/3/104 255/4/106 256/4/138 
f 256/4/138 255/4/106 257/5/106 258/5/139 
f 258/5/139 257/5/106 259/6/104 260/6/140 
f 260/6/140 259/6/104 261/7/104 262/7/141 
f 262/7/141 261/7/104 263/8/106 264/8/142 
f 264/8/142 263/8/106 250/1/106 249/1/135 
f 250/1/106 265/1/106 266/2/104 251/2/104 
f 251/2/104 266/2/104 267/3/104 253/3/104 
f 253/3/104 267/3/104 268/4/106 255/4/106 
f 255/4/106 268/4/106 269/5/106 257/5/106 
f 257/5/106 269/5/106 270/6/106 259/6/104 
f 259/6/104 270/6/106 271/7/143 261/7/104 
f 261/7/104 271/7/143 272/8/144 263/8/106 
f 263/8/106 272/8/144 265/1/106 250/1/106 
f 270/6/106 228/6/119 227/7/118 271/7/143 
f 271/7/143 227/7/118 229/8/120 272/8/144 
f 272/8/144 229/8/120 230/1/121 265/1/106 
f 266/2/104 273/2/117 274/3/117 267/3/104 
f 267/3/104 274/3/117 275/4/106 268/4/106 
f 268/4/106 275/4/106 276/5/104 269/5/106 
f 265/1/106 277/1/104 278/2/117 266/2/104 
f 230/1/121 233/1/123 277/1/104 265/1/106 
f 266/2/104 278/2/117 279/2/145 273/2/117 
f 269/5/106 280/5/145 281/6/106 270/6/106 
f 270/6/106 281/6/106 238/6/123 228/6/119 
f 276/5/104 282/5/145 280/5/145 269/5/106 
f 152/1/72 154/1/72 185/1/20 183/1/20 
f 154/1/72 156/1/73 159/1/75 185/1/20 
f 183/1/20 112/1/54 111/1/53 152/1/72 
s 1
f 208/6/107 210/1/108 122/6/60 120/5/59 
s 2
f 210/1/108 212/8/109 124/2/61 122/6/60 
s 1
f 212/8/109 214/1/110 126/1/62 124/2/61 
s 2
f 214/1/110 216/1/111 128/3/63 126/1/62 
s 1
f 216/1/111 218/1/112 130/4/64 128/3/63 
s 2
f 206/6/105 208/6/107 120/5/59 117/1/58 
s 1
f 203/5/103 206/6/105 117/1/58 116/1/57 
s 2
f 218/1/112 203/5/103 116/1/57 130/4/64 
s off
f 233/4/123 243/4/129 283/4/127 277/4/104 
f 277/4/104 283/4/127 284/4/146 278/4/117 
f 278/4/117 284/4/146 285/4/147 279/4/145 
f 247/3/133 238/3/123 281/3/106 286/3/132 
f 286/3/132 281/3/106 280/3/145 287/3/148 
f 287/3/148 280/3/145 282/3/145 288/3/149 
f 274/3/117 273/2/117 289/2/150 290/3/151 
f 275/4/106 274/3/117 290/3/151 291/4/152 
f 276/5/104 275/4/106 291/4/152 292/5/153 
f 273/2/117 279/2/145 293/2/154 289/2/150 
f 282/5/145 276/5/104 292/5/153 294/5/155 
f 279/4/145 285/4/147 295/4/156 293/4/154 
f 288/3/149 282/3/145 294/3/155 296/3/157 
f 295/4/156 285/4/147 187/1/89 201/1/101 
f 285/4/147 284/4/146 186/1/88 187/1/89 
f 284/4/146 283/4/127 184/1/88 186/1/88 
f 283/4/127 243/4/129 181/4/87 184/1/88 
f 243/4/129 242/2/128 179/2/85 181/4/87 
f 242/2/128 241/1/127 180/1/86 179/2/85 
f 241/1/127 244/1/130 182/1/25 180/1/86 
f 235/1/125 234/1/124 143/1/19 147/1/70 
f 244/1/130 235/1/125 147/1/70 182/1/25 
f 240/6/126 239/6/125 150/6/71 141/6/17 
f 239/6/125 248/6/134 191/6/93 150/6/71 
f 248/6/134 246/6/132 188/6/90 191/6/93 
f 90/8/37 89/7/36 98/7/45 97/8/44 
f 89/7/36 91/6/38 101/6/46 98/7/45 
f 91/6/38 92/5/39 103/5/47 101/6/46 
f 92/5/39 93/4/40 105/4/48 103/5/47 
f 93/4/40 94/3/41 107/3/49 105/4/48 
f 94/3/41 95/2/42 108/2/50 107/3/49 
f 95/2/42 96/1/43 109/1/51 108/2/50 
f 96/1/43 90/8/37 97/8/44 109/1/51 
f 246/6/132 245/5/131 189/5/91 188/6/90 
f 245/5/131 247/3/133 190/3/92 189/5/91 
f 247/3/133 286/3/132 192/6/90 190/3/92 
f 286/3/132 287/3/148 193/6/94 192/6/90 
f 287/3/148 288/3/149 194/6/95 193/6/94 
f 288/3/149 296/3/157 202/6/102 194/6/95 
f 296/3/157 294/5/155 200/1/97 202/6/102 
f 294/5/155 292/5/153 199/1/100 200/1/97 
f 292/5/153 291/4/152 198/1/99 199/1/100 
f 291/4/152 290/3/151 197/1/98 198/1/99 
f 290/3/151 289/2/150 195/1/96 197/1/98 
f 289/2/150 293/2/154 196/1/97 195/1/96 
f 293/2/154 295/4/156 201/1/101 196/1/97 
s 1
f 258/7/139 260/8/140 11/6/7 9/5/6 
s 2
f 260/8/140 262/2/141 13/7/8 11/6/7 
f 256/6/138 258/7/139 9/5/6 7/4/5 
s 1
f 254/5/137 256/6/138 7/4/5 5/3/4 
s 2
f 252/3/136 254/5/137 5/3/4 2/2/2 
s 1
f 249/3/135 252/3/136 2/2/2 1/1/1 
s 2
f 264/3/142 249/3/135 1/1/1 15/8/9 
s 1
f 262/2/141 264/3/142 15/8/9 13/7/8 
f 226/6/104 217/1/104 215/1/106 225/3/117 
s off
f 225/7/117 224/6/117 240/6/126 297/7/158 
f 219/1/104 226/8/104 298/8/159 234/1/124 
f 226/6/104 225/3/117 297/3/158 298/6/159 
f 141/6/17 140/7/67 297/7/158 240/6/126 
f 140/7/67 142/8/18 298/8/159 297/7/158 
f 142/8/18 143/1/19 234/1/124 298/8/159 
# 299 polygons

