# 3ds Max Wavefront OBJ Exporter v0.97b - (c)2007 guruware
# File Created: 27.01.2018 14:57:58

mtllib vasca.mtl

#
# object uff
#

v  1352.3156 14.0000 -54.7915
v  1353.5408 14.0000 -56.0176
v  1353.5402 14.0000 -57.7508
v  1351.4482 14.0000 -56.8835
v  1353.7230 14.0000 -55.9422
v  1353.7223 14.0000 -57.8263
v  1352.3911 14.0000 -54.6094
v  1350.5824 14.0000 -54.7909
v  1350.5070 14.0000 -54.6087
v  1349.3563 14.0000 -56.0161
v  1349.1742 14.0000 -55.9406
v  1349.3557 14.0000 -57.7494
v  1349.1735 14.0000 -57.8248
v  1350.5809 14.0000 -58.9754
v  1350.5054 14.0000 -59.1576
v  1352.3141 14.0000 -58.9760
v  1352.3895 14.0000 -59.1582
v  1353.7223 16.0000 -57.8263
v  1353.7230 16.0000 -55.9422
v  1353.8990 16.0000 -55.8693
v  1353.8983 16.0000 -57.8993
v  1352.3911 16.0000 -54.6094
v  1352.4641 16.0000 -54.4333
v  1350.5070 16.0000 -54.6087
v  1350.4341 16.0000 -54.4326
v  1349.1742 16.0000 -55.9406
v  1348.9982 16.0000 -55.8676
v  1349.1735 16.0000 -57.8248
v  1348.9974 16.0000 -57.8976
v  1350.5054 16.0000 -59.1576
v  1350.4324 16.0000 -59.3336
v  1352.3895 16.0000 -59.1582
v  1352.4624 16.0000 -59.3343
v  1354.0887 16.0000 -55.7908
v  1354.0880 16.0000 -57.9780
v  1352.5427 16.0000 -54.2437
v  1350.3556 16.0000 -54.2429
v  1348.8085 16.0000 -55.7890
v  1348.8077 16.0000 -57.9761
v  1350.3538 16.0000 -59.5232
v  1352.5409 16.0000 -59.5240
v  1350.3650 16.0000 -85.2795
v  1348.8190 16.0000 -85.2726
v  1352.5298 16.0000 -85.2795
v  1354.0768 16.0000 -85.2726
v  1352.5320 16.0000 -28.4876
v  1354.0780 16.0000 -28.4943
v  1350.3663 16.0000 -28.4876
v  1348.8192 16.0000 -28.4942
v  1422.2958 16.0000 -55.7899
v  1422.2950 16.0000 -57.9771
v  1422.2950 16.0000 -85.2726
v  1422.2958 16.0000 -28.4943
v  1280.6012 16.0000 -57.9770
v  1280.6021 16.0000 -55.7898
v  1280.6012 16.0000 -85.2726
v  1280.6021 16.0000 -28.4942
v  1348.3000 60.0000 -96.7109
v  1350.1433 60.0000 -96.7191
v  1350.3613 0.0000 -90.0655
v  1348.8259 0.0000 -90.0586
v  1352.7510 60.0000 -96.7192
v  1352.5334 0.0000 -90.0655
v  1354.5955 60.0000 -96.7109
v  1354.0698 0.0000 -90.0586
v  1354.5964 60.0000 -17.0559
v  1352.7532 60.0000 -17.0480
v  1352.5353 0.0000 -23.7016
v  1354.0706 0.0000 -23.7082
v  1350.1455 60.0000 -17.0480
v  1350.3632 0.0000 -23.7016
v  1348.3010 60.0000 -17.0559
v  1348.8267 0.0000 -23.7082
v  1441.8959 60.0000 -58.1884
v  1441.8967 60.0000 -55.5807
v  1426.7893 0.0000 -55.7983
v  1426.7886 0.0000 -57.9704
v  1441.8959 60.0000 -96.7109
v  1426.7886 0.0000 -90.0586
v  1441.8967 60.0000 -17.0559
v  1426.7893 0.0000 -23.7082
v  1261.0012 60.0000 -55.5785
v  1261.0004 60.0000 -58.1862
v  1276.1077 0.0000 -57.9686
v  1276.1085 0.0000 -55.7965
v  1261.0004 60.0000 -96.7109
v  1276.1077 0.0000 -90.0586
v  1261.0012 60.0000 -17.0559
v  1276.1085 0.0000 -23.7082
v  1348.8263 0.0000 -55.7974
v  1350.3623 0.0000 -55.7974
v  1350.3622 0.0000 -57.9695
v  1348.8263 0.0000 -57.9695
v  1354.0702 0.0000 -57.9695
v  1352.5343 0.0000 -57.9695
v  1354.0702 0.0000 -55.7974
v  1352.5343 0.0000 -55.7974
v  1348.3135 60.0000 -90.7304
v  1350.1566 60.0000 -90.7386
v  1266.9810 60.0000 -90.7304
v  1266.9810 60.0000 -58.1872
v  1266.9818 60.0000 -55.5796
v  1266.9818 60.0000 -23.0364
v  1348.3138 60.0000 -23.0364
v  1350.1583 60.0000 -23.0285
v  1352.7402 60.0000 -23.0285
v  1354.5835 60.0000 -23.0364
v  1435.9161 60.0000 -23.0364
v  1435.9161 60.0000 -55.5797
v  1435.9153 60.0000 -58.1873
v  1435.9153 60.0000 -90.7304
v  1354.5822 60.0000 -90.7304
v  1352.7377 60.0000 -90.7386
v  1348.3540 56.4731 -90.2929
v  1350.1733 56.4731 -90.3010
v  1268.0728 56.4731 -90.2929
v  1268.0728 56.4731 -58.1704
v  1268.0736 56.4731 -55.5964
v  1268.0736 56.4731 -23.4739
v  1348.3544 56.4731 -23.4739
v  1350.1750 56.4731 -23.4661
v  1352.7236 56.4731 -23.4661
v  1354.5430 56.4731 -23.4739
v  1434.8243 56.4731 -23.4739
v  1434.8245 56.4731 -55.5965
v  1434.8235 56.4731 -58.1705
v  1434.8235 56.4731 -90.2929
v  1354.5416 56.4731 -90.2929
v  1352.7209 56.4731 -90.3010
v  1348.6289 55.9570 -92.2454
v  1348.6459 54.4778 -92.0619
v  1350.1829 54.4778 -92.0688
v  1350.1735 55.9570 -92.2523
v  1268.6976 54.4543 -90.0425
v  1348.3772 54.4543 -90.0425
v  1268.6976 54.4543 -58.1607
v  1268.6985 54.4543 -55.6061
v  1268.6985 54.4543 -23.7243
v  1348.3776 54.4543 -23.7243
v  1350.1846 54.4543 -23.7166
v  1352.7140 54.4543 -23.7166
v  1354.5198 54.4543 -23.7243
v  1434.1995 54.4543 -23.7243
v  1434.1995 54.4543 -55.6062
v  1434.1986 54.4543 -58.1608
v  1434.1986 54.4543 -90.0425
v  1354.5184 54.4543 -90.0425
v  1352.7209 55.9570 -92.2523
v  1352.7115 54.4778 -92.0688
v  1354.2498 54.4778 -92.0619
v  1354.2667 55.9570 -92.2454
v  1350.1829 54.4543 -90.0505
v  1352.7114 54.4543 -90.0505
v  1354.2667 56.2033 -90.2607
v  1354.2498 54.7240 -90.0772
v  1352.7209 56.2033 -90.2675
v  1350.1735 56.2033 -90.2675
v  1348.6289 56.2033 -90.2606
v  1348.6459 54.7240 -90.0771
v  1350.1829 54.7240 -90.0840
v  1352.7115 54.7240 -90.0840
# 161 vertices

vn 0.0000 1.0000 -0.0000
vn -0.7174 0.6303 -0.2969
vn -0.7172 0.6303 0.2974
vn -0.2974 0.6303 -0.7172
vn 0.2969 0.6303 -0.7174
vn 0.7171 0.6303 -0.2974
vn 0.7173 0.6303 0.2968
vn 0.2973 0.6303 0.7171
vn -0.2969 0.6303 0.7173
vn -0.5491 0.8042 0.2276
vn -0.5492 0.8042 -0.2273
vn -0.2276 0.8042 -0.5491
vn 0.2273 0.8042 -0.5492
vn 0.5490 0.8042 -0.2277
vn 0.5491 0.8042 0.2272
vn 0.2276 0.8042 0.5490
vn -0.2273 0.8042 0.5492
vn 0.0015 0.7489 0.6627
vn 0.0015 0.7498 0.6616
vn -0.0015 0.7489 0.6627
vn -0.0015 0.7498 0.6616
vn -0.0014 0.7489 -0.6627
vn -0.0014 0.7498 -0.6616
vn 0.0014 0.7489 -0.6627
vn 0.0014 0.7498 -0.6616
vn -0.5935 0.8049 0.0001
vn -0.5934 0.8049 0.0001
vn -0.4792 0.6833 0.5509
vn -0.4792 0.6833 -0.5509
vn 0.5935 0.8049 -0.0001
vn 0.5934 0.8049 -0.0001
vn 0.4792 0.6833 0.5509
vn 0.4792 0.6833 -0.5509
vn -0.0017 0.6675 -0.7446
vn -0.0017 0.6665 -0.7455
vn -0.0015 -0.7446 -0.6675
vn -0.0015 -0.7455 -0.6665
vn 0.0017 0.6665 -0.7455
vn 0.0015 -0.7446 -0.6675
vn 0.0017 0.6675 -0.7446
vn 0.0015 -0.7455 -0.6665
vn 0.0016 0.6675 0.7446
vn 0.0016 0.6665 0.7455
vn 0.0014 -0.7446 0.6675
vn 0.0014 -0.7455 0.6665
vn -0.0016 0.6665 0.7455
vn -0.0014 -0.7446 0.6675
vn -0.0016 0.6675 0.7446
vn -0.0014 -0.7455 0.6665
vn 0.7887 0.6147 -0.0001
vn 0.7887 0.6148 -0.0001
vn 0.6148 -0.7887 -0.0001
vn 0.6147 -0.7888 -0.0001
vn 0.6419 0.4827 -0.5958
vn 0.4983 -0.6679 -0.5528
vn 0.6419 0.4827 0.5958
vn 0.4983 -0.6679 0.5528
vn -0.7887 0.6147 0.0001
vn -0.7887 0.6148 0.0001
vn -0.6148 -0.7887 0.0001
vn -0.6147 -0.7888 0.0001
vn -0.6419 0.4827 -0.5958
vn -0.4983 -0.6679 -0.5528
vn -0.6419 0.4827 0.5958
vn -0.4984 -0.6678 0.5529
vn 0.0000 -1.0000 -0.0000
vn 0.2469 0.9426 0.2247
vn 0.2469 0.9426 -0.2247
vn 0.0014 0.7489 -0.6626
vn -0.0014 0.7489 -0.6626
vn -0.2469 0.9426 -0.2247
vn -0.2469 0.9426 0.2247
vn 0.0022 0.1231 0.9924
vn 0.6635 0.2909 0.6893
vn 0.9553 0.2957 -0.0002
vn 0.6635 0.2909 -0.6893
vn 0.0021 0.1231 -0.9924
vn -0.0021 0.1231 -0.9924
vn -0.6635 0.2909 -0.6893
vn -0.9553 0.2957 0.0002
vn -0.6635 0.2909 0.6893
vn -0.0022 0.1231 0.9924
vn 0.5822 -0.4992 0.6417
vn 0.5748 0.6473 0.5006
vn 0.0014 0.7883 0.6152
vn 0.0018 -0.6142 0.7892
vn -0.0018 -0.6142 0.7892
vn -0.0014 0.7883 0.6153
vn -0.5748 0.6473 0.5006
vn -0.5822 -0.4992 0.6417
vn -0.3051 -0.1830 0.9346
vn -0.3053 0.4129 0.8581
vn -0.0018 -0.6151 0.7885
vn 0.0018 -0.6151 0.7884
vn 0.3051 -0.1830 0.9346
vn 0.3053 0.4129 0.8581
vn 0.0014 0.7893 0.6141
vn -0.0014 0.7894 0.6139
# 98 vertex normals

vt 0.5000 0.0000 1.0000
vt 0.6250 0.0000 1.0000
vt 0.7500 0.0000 1.0000
vt 0.2500 0.0000 1.0000
vt 0.3750 0.0000 1.0000
vt 0.1250 0.0000 1.0000
vt 0.0000 0.0000 1.0000
vt -0.1250 0.0000 1.0000
vt 0.4310 0.0000 1.0000
vt 0.4348 0.0000 1.0000
vt 0.4330 0.0000 1.0000
vt 0.4266 0.0000 1.0000
vt 0.4484 0.0000 1.0000
vt 0.4420 0.0000 1.0000
vt 0.4440 0.0000 1.0000
vt 0.4402 0.0000 1.0000
# 16 texture coords

o uff
g uff
usemtl wire_108008136
s 1
f 1/1/1 2/2/1 3/3/1 4/4/1 1/1/1 
s off
f 3/3/1 2/2/1 5/2/2 6/3/3 
f 2/2/1 1/1/1 7/1/4 5/2/2 
f 1/1/1 1/1/1 8/5/1 9/5/5 7/1/4 
f 8/5/1 10/4/1 11/4/6 9/5/5 
f 10/4/1 12/6/1 13/6/7 11/4/6 
f 12/6/1 14/7/1 15/7/8 13/6/7 
f 14/7/1 16/8/1 17/8/9 15/7/8 
f 16/8/1 3/3/1 6/3/3 17/8/9 
f 18/3/10 19/2/11 20/2/1 21/3/1 
f 19/2/11 22/1/12 23/1/1 20/2/1 
f 22/1/12 24/5/13 25/5/1 23/1/1 
f 24/5/13 26/4/14 27/4/1 25/5/1 
f 26/4/14 28/6/15 29/6/1 27/4/1 
f 28/6/15 30/7/16 31/7/1 29/6/1 
f 30/7/16 32/8/17 33/8/1 31/7/1 
f 32/8/17 18/3/10 21/3/1 33/8/1 
f 21/3/1 20/2/1 34/2/1 35/3/1 
f 20/2/1 23/1/1 36/1/1 34/2/1 
f 23/1/1 25/5/1 37/5/1 36/1/1 
f 25/5/1 27/4/1 38/4/1 37/5/1 
f 27/4/1 29/6/1 39/6/1 38/4/1 
f 29/6/1 31/7/1 40/7/1 39/6/1 
f 31/7/1 33/8/1 41/8/1 40/7/1 
f 33/8/1 21/3/1 35/3/1 41/8/1 
f 39/6/1 40/7/1 42/7/18 43/6/19 
f 40/7/1 41/8/1 44/8/20 42/7/18 
f 41/8/1 35/3/1 45/3/21 44/8/20 
f 34/2/1 36/1/1 46/1/22 47/2/23 
f 36/1/1 37/5/1 48/5/24 46/1/22 
f 37/5/1 38/4/1 49/4/25 48/5/24 
f 35/3/1 34/2/1 50/2/26 51/3/27 
f 45/3/21 35/3/1 51/3/27 52/3/28 
f 34/2/1 47/2/23 53/2/29 50/2/26 
f 38/4/1 39/6/1 54/6/30 55/4/31 
f 39/6/1 43/6/19 56/6/32 54/6/30 
f 49/4/25 38/4/1 55/4/31 57/4/33 
s 1
f 58/6/34 59/7/35 60/7/36 61/6/37 
f 59/7/35 62/8/38 63/8/39 60/7/36 
f 62/8/38 64/3/40 65/3/41 63/8/39 
f 66/2/42 67/1/43 68/1/44 69/2/45 
f 67/1/43 70/5/46 71/5/47 68/1/44 
f 70/5/46 72/4/48 73/4/49 71/5/47 
s 2
f 74/3/50 75/2/51 76/2/52 77/3/53 
f 78/3/54 74/3/50 77/3/53 79/3/55 
s 1
f 64/3/40 78/3/54 79/3/55 65/3/41 
f 80/2/56 66/2/42 69/2/45 81/2/57 
s 2
f 75/2/51 80/2/56 81/2/57 76/2/52 
f 82/4/58 83/6/59 84/6/60 85/4/61 
s 1
f 86/6/62 58/6/34 61/6/37 87/6/63 
s 2
f 83/6/59 86/6/62 87/6/63 84/6/60 
f 88/4/64 82/4/58 85/4/61 89/4/65 
s 1
f 72/4/48 88/4/64 89/4/65 73/4/49 
s off
f 71/5/47 73/4/49 90/9/66 91/10/66 
f 61/6/37 60/7/36 92/11/66 93/12/66 
f 91/10/66 90/9/66 93/12/66 92/11/66 
f 73/4/49 89/4/65 85/4/61 90/9/66 
f 90/9/66 85/4/61 84/6/60 93/12/66 
f 93/12/66 84/6/60 87/6/63 61/6/37 
f 63/8/39 65/3/41 94/13/66 95/14/66 
f 95/14/66 94/13/66 96/15/66 97/16/66 
f 97/16/66 96/15/66 69/2/45 68/1/44 
f 68/1/44 71/5/47 91/10/66 97/16/66 
f 97/16/66 91/10/66 92/11/66 95/14/66 
f 95/14/66 92/11/66 60/7/36 63/8/39 
f 65/3/41 79/3/55 77/3/53 94/13/66 
f 94/13/66 77/3/53 76/2/52 96/15/66 
f 96/15/66 76/2/52 81/2/57 69/2/45 
f 59/7/35 58/6/34 98/6/18 99/7/19 
f 58/6/34 86/6/62 100/6/67 98/6/18 
f 86/6/62 83/6/59 101/6/31 100/6/67 
f 83/6/59 82/4/58 102/4/31 101/6/31 
f 82/4/58 88/4/64 103/4/68 102/4/31 
f 88/4/64 72/4/48 104/4/69 103/4/68 
f 72/4/48 70/5/46 105/5/25 104/4/69 
f 70/5/46 67/1/43 106/1/23 105/5/25 
f 67/1/43 66/2/42 107/2/70 106/1/23 
f 66/2/42 80/2/56 108/2/71 107/2/70 
f 80/2/56 75/2/51 109/2/27 108/2/71 
f 75/2/51 74/3/50 110/3/26 109/2/27 
f 74/3/50 78/3/54 111/3/72 110/3/26 
f 78/3/54 64/3/40 112/3/20 111/3/72 
f 64/3/40 62/8/38 113/8/21 112/3/20 
f 62/8/38 59/7/35 99/7/19 113/8/21 
f 99/7/19 98/6/18 114/6/73 115/7/73 
f 98/6/18 100/6/67 116/6/74 114/6/73 
f 100/6/67 101/6/31 117/6/75 116/6/74 
f 101/6/31 102/4/31 118/4/75 117/6/75 
f 102/4/31 103/4/68 119/4/76 118/4/75 
f 103/4/68 104/4/69 120/4/77 119/4/76 
f 104/4/69 105/5/25 121/5/77 120/4/77 
f 105/5/25 106/1/23 122/1/78 121/5/77 
f 106/1/23 107/2/70 123/2/78 122/1/78 
f 107/2/70 108/2/71 124/2/79 123/2/78 
f 108/2/71 109/2/27 125/2/80 124/2/79 
f 109/2/27 110/3/26 126/3/80 125/2/80 
f 110/3/26 111/3/72 127/3/81 126/3/80 
f 111/3/72 112/3/20 128/3/82 127/3/81 
f 112/3/20 113/8/21 129/8/82 128/3/82 
f 113/8/21 99/7/19 115/7/73 129/8/82 
f 19/2/11 18/3/10 6/3/3 5/2/2 
f 18/3/10 32/8/17 17/8/9 6/3/3 
f 32/8/17 30/7/16 15/7/8 17/8/9 
f 30/7/16 28/6/15 13/6/7 15/7/8 
f 28/6/15 26/4/14 11/4/6 13/6/7 
f 26/4/14 24/5/13 9/5/5 11/4/6 
f 24/5/13 22/1/12 7/1/4 9/5/5 
f 22/1/12 19/2/11 5/2/2 7/1/4 
s 1
f 10/4/1 8/5/1 1/1/1 4/4/1 
f 3/3/1 16/8/1 14/7/1 4/4/1 
f 4/4/1 14/7/1 12/6/1 10/4/1 
s off
f 130/6/83 131/6/84 132/7/85 133/7/86 
f 116/6/74 134/6/74 135/6/73 114/6/73 
f 117/6/75 136/6/75 134/6/74 116/6/74 
f 118/4/75 137/4/75 136/6/75 117/6/75 
f 119/4/76 138/4/76 137/4/75 118/4/75 
f 120/4/77 139/4/77 138/4/76 119/4/76 
f 121/5/77 140/5/77 139/4/77 120/4/77 
f 122/1/78 141/1/78 140/5/77 121/5/77 
f 123/2/78 142/2/78 141/1/78 122/1/78 
f 124/2/79 143/2/79 142/2/78 123/2/78 
f 125/2/80 144/2/80 143/2/79 124/2/79 
f 126/3/80 145/3/80 144/2/80 125/2/80 
f 127/3/81 146/3/81 145/3/80 126/3/80 
f 128/3/82 147/3/82 146/3/81 127/3/81 
f 148/8/87 149/8/88 150/3/89 151/3/90 
f 133/7/86 132/7/85 149/8/88 148/8/87 
f 135/6/73 43/6/19 42/7/18 152/7/73 
f 134/6/74 56/6/32 43/6/19 135/6/73 
f 136/6/75 54/6/30 56/6/32 134/6/74 
f 137/4/75 55/4/31 54/6/30 136/6/75 
f 138/4/76 57/4/33 55/4/31 137/4/75 
f 139/4/77 49/4/25 57/4/33 138/4/76 
f 140/5/77 48/5/24 49/4/25 139/4/77 
f 141/1/78 46/1/22 48/5/24 140/5/77 
f 142/2/78 47/2/23 46/1/22 141/1/78 
f 143/2/79 53/2/29 47/2/23 142/2/78 
f 144/2/80 50/2/26 53/2/29 143/2/79 
f 145/3/80 51/3/27 50/2/26 144/2/80 
f 146/3/81 52/3/28 51/3/27 145/3/80 
f 147/3/82 45/3/21 52/3/28 146/3/81 
f 153/8/82 44/8/20 45/3/21 147/3/82 
f 152/7/73 42/7/18 44/8/20 153/8/82 
f 147/3/82 128/3/82 154/3/91 155/3/92 
f 128/3/82 129/8/82 156/8/93 154/3/91 
f 129/8/82 115/7/73 157/7/94 156/8/93 
f 115/7/73 114/6/73 158/6/95 157/7/94 
f 114/6/73 135/6/73 159/6/96 158/6/95 
f 135/6/73 152/7/73 160/7/97 159/6/96 
f 152/7/73 153/8/82 161/8/98 160/7/97 
f 153/8/82 147/3/82 155/3/92 161/8/98 
f 155/3/92 154/3/91 151/3/90 150/3/89 
f 154/3/91 156/8/93 148/8/87 151/3/90 
f 156/8/93 157/7/94 133/7/86 148/8/87 
f 157/7/94 158/6/95 130/6/83 133/7/86 
f 158/6/95 159/6/96 131/6/84 130/6/83 
f 159/6/96 160/7/97 132/7/85 131/6/84 
f 160/7/97 161/8/98 149/8/88 132/7/85 
f 161/8/98 155/3/92 150/3/89 149/8/88 
# 159 polygons

